<svg version="1.1" xmlns="http://www.w3.org/2000/svg" style="display: block;" viewBox="0 0 1906 2048" width="992" height="1066" preserveAspectRatio="none">
<path transform="translate(0,0)" fill="rgb(255,255,255)" d="M 0 0 L 1906 0 L 1906 2048 L 0 2048 L 0 0 z"/>
<path transform="translate(0,0)" fill="rgb(37,34,35)" d="M 922.037 160.5 C 933.859 159.377 954.57 159.669 966.584 159.709 C 1083 160.1 1215.24 194.834 1315.64 254.467 C 1300.93 280.606 1285.96 306.592 1270.71 332.421 C 1195.61 291.462 1119.8 264.789 1034.59 254.491 C 866.02 234.386 696.384 282.217 563.15 387.42 C 431.421 490.573 346.147 641.898 326.14 808.008 C 306.322 971.849 352.569 1136.84 454.659 1266.51 C 564.368 1405.49 714.807 1488.09 890.475 1508.58 C 1056.42 1526.39 1222.72 1478.23 1353.46 1374.5 C 1485.71 1270.87 1571.03 1118.66 1590.41 951.767 C 1605.03 818.384 1576.58 683.824 1509.24 567.768 C 1490.65 535.913 1472.63 511.371 1449.82 482.698 C 1428.51 456.746 1406.56 435.802 1382.65 412.394 C 1388.43 405.912 1395.66 395.664 1401.3 388.455 C 1413.38 373.055 1425.57 357.741 1437.87 342.514 C 1587.16 477.217 1669.79 642.708 1682.39 844.469 C 1692.32 1031.65 1628.1 1215.21 1503.63 1355.37 C 1375.82 1500.75 1195.19 1589 1001.95 1600.46 C 808.817 1612.51 618.884 1546.82 474.462 1418.02 C 329.916 1290.24 242.81 1109.71 232.739 917.044 C 223.41 727.118 290.098 541.297 418.064 400.643 C 547.376 256.68 728.771 170.246 922.037 160.5 z"/>
<path transform="translate(0,0)" fill="rgb(37,34,35)" d="M 987.544 610.436 C 1100.77 606.262 1251.8 605.53 1297.71 735.565 C 1303.25 751.258 1305.64 769.017 1306.79 785.765 C 1310.56 840.315 1291.79 892.556 1249.62 928.347 C 1231.49 943.731 1214.97 952.435 1194.21 963.459 C 1226.2 975.7 1249.12 985.697 1274.86 1010.17 C 1345.35 1077.67 1336.13 1214.31 1268.08 1282.41 C 1179.19 1371.36 1030.33 1355.66 915.289 1351.62 C 897.701 1351.01 901.696 1319.77 901.869 1306.5 C 901.957 1286.19 900.032 1258.07 903.665 1238.89 C 906.5 1223.92 952.813 1231.58 964.01 1231.84 C 1021.91 1234.42 1136.49 1244.31 1163.23 1177.3 C 1203.76 1075.75 1112.35 1017.78 1020.16 1027.05 C 1009.71 1028.11 973.043 1029.34 968.323 1025.02 C 952.58 1010.63 962.495 953.168 960.404 931.515 C 960.609 910.095 990.135 912.364 1003.78 913.664 C 1084.11 921.315 1183.5 888.783 1156.22 787.985 C 1135.04 709.719 1000.83 733.555 940.628 733.126 C 926.473 733.025 905.652 737.151 892.402 730.368 C 882.619 719.37 888.39 644.856 887.746 627.156 C 887.117 609.868 919.788 612.402 931.779 612.105 C 950.373 611.767 968.963 611.21 987.544 610.436 z"/>
<path transform="translate(0,0)" fill="rgb(37,34,35)" d="M 645.073 682.255 C 672.135 681.214 700.101 682.461 727.256 681.922 C 740.67 681.656 754.808 681.322 767.943 683.779 C 779.137 685.872 778.846 703.446 778.864 712.665 L 778.684 1017.23 L 778.662 1110.15 C 778.664 1144.29 772.999 1192.2 802.881 1215.55 C 814.547 1224.67 826.834 1226.19 840.686 1229.74 C 841.03 1236.51 841.341 1255.87 840.874 1261.49 C 839.671 1275.96 843.483 1343.38 838.862 1350.26 C 834.522 1352.4 831.057 1352.08 826.176 1352.28 C 716.61 1351.87 632.392 1282.78 629.914 1169.72 C 629.312 1142.27 629.509 1114.91 629.537 1087.45 L 629.651 943.513 L 629.667 782.825 C 629.673 755.429 629.598 727.902 629.824 700.506 C 629.852 697.138 630.469 693.53 632.25 690.63 C 635.585 685.2 639.292 683.883 645.073 682.255 z"/>
<path transform="translate(0,0)" fill="rgb(37,34,35)" d="M 1027.11 1708.99 L 1059.76 1709.07 C 1059.76 1736.35 1060.29 1765.98 1059.28 1793.05 C 1070.84 1781.68 1081.79 1772.31 1098.33 1769.51 C 1183.24 1755.14 1198.64 1865.95 1161.6 1919.74 C 1161.02 1920.43 1160.43 1921.13 1159.83 1921.82 C 1143.39 1941.01 1120.48 1948.42 1095.73 1943.14 C 1080.18 1939.83 1069.49 1931.38 1057.81 1921.19 L 1054.15 1940.97 L 1026.94 1940.98 L 1027.11 1708.99 z"/>
<path transform="translate(0,0)" fill="rgb(255,255,255)" d="M 1097.93 1796.31 C 1130.25 1793.95 1144.07 1815.9 1146.2 1845.09 C 1148.33 1874.43 1143.34 1908.17 1110.2 1917 C 1085.71 1918.84 1072.59 1910.71 1059.77 1890.84 C 1059.38 1869.56 1059.75 1847.01 1059.76 1825.63 C 1060.8 1823.97 1061.86 1822.32 1062.93 1820.68 C 1072.19 1806.63 1081.36 1799.7 1097.93 1796.31 z"/>
<path transform="translate(0,0)" fill="rgb(37,34,35)" d="M 691.104 450.823 C 738.453 443.487 782.722 476.102 789.749 523.498 C 796.776 570.894 763.875 614.95 716.434 621.668 C 669.428 628.325 625.863 595.79 618.9 548.828 C 611.938 501.866 644.189 458.091 691.104 450.823 z"/>
<path transform="translate(0,0)" fill="rgb(37,34,35)" d="M 782.511 1769.31 C 860.703 1762.76 857.039 1812.63 857.004 1871.86 L 856.924 1940.91 L 830.507 1940.97 C 829.246 1934.82 828.378 1926.67 827.528 1920.3 C 825.16 1922.36 822.757 1924.39 820.32 1926.36 C 792.801 1948.52 752.138 1954.94 728.051 1924.36 C 722.932 1915.69 720.489 1907.77 719.954 1897.68 C 716.894 1839.98 783.778 1837.93 824.978 1837.01 C 824.23 1813.75 818.168 1796.18 791.139 1795.53 C 771.91 1795.06 756.922 1801.34 740.244 1809.92 C 736.261 1802.74 732.374 1795.51 728.585 1788.23 C 748.261 1777.17 760.276 1772.56 782.511 1769.31 z"/>
<path transform="translate(0,0)" fill="rgb(255,255,255)" d="M 813.237 1859.43 L 824.98 1859.06 L 824.963 1893.34 C 811.887 1912.92 791.958 1922.41 768.605 1917.01 C 759.539 1913.35 753.987 1906.58 752.79 1896.83 C 748.609 1862.78 789.458 1860.93 813.237 1859.43 z"/>
<path transform="translate(0,0)" fill="rgb(37,34,35)" d="M 1391.65 1769.29 C 1416.23 1766.23 1438.6 1772.64 1458.48 1786.97 L 1444.64 1807.17 C 1427.04 1797 1396.19 1785.96 1378.21 1803.45 C 1375.81 1805.78 1371.14 1814.3 1372.52 1817.6 C 1384.21 1845.53 1430.67 1839.82 1451.4 1860.37 C 1459.96 1867.96 1464.78 1876.35 1465.42 1888.11 C 1467.86 1932.21 1434.64 1943.81 1397.91 1944.92 C 1370.52 1942.71 1358.3 1938.06 1336 1922.17 L 1350.82 1900.21 C 1369.46 1913.8 1385.98 1920.91 1409.5 1918.39 C 1422.77 1916.97 1437.59 1905.08 1433.08 1891.31 C 1424.65 1865.54 1379.1 1868.56 1359.73 1852.32 C 1350.81 1844.85 1343.79 1839.36 1342.03 1826.74 C 1338 1790.63 1360.02 1774.13 1391.65 1769.29 z"/>
<path transform="translate(0,0)" fill="rgb(37,34,35)" d="M 493.318 1709.09 L 526.208 1709.02 C 527.028 1770.67 525.287 1832.68 526.388 1894.36 C 526.758 1915.09 534.691 1917.66 553.749 1916.09 C 555.022 1921.19 559.691 1937.92 556.785 1941.7 C 533.812 1947.92 503.458 1946.62 497.052 1919.01 C 491.152 1893.58 493.184 1862.62 493.174 1836.32 L 493.318 1709.09 z"/>
</svg>